<svg xmlns="http://www.w3.org/2000/svg" width="26.038" height="21.901" viewBox="0 0 26.038 21.901">
  <g id="Small_LED_Light_Base___ArtPix_3D-5" data-name="Small LED Light Base _ ArtPix 3D-5" transform="translate(-0.01 0)">
    <path id="Path_3" data-name="Path 3" d="M2.977,2.171a.772.772,0,0,0-.567.241.76.76,0,0,0-.241.555V15.738a.883.883,0,0,0,.048.326.482.482,0,0,0,.169.241l.205.133a.726.726,0,0,0,.3.072q.3.014.6.024h.277a3.07,3.07,0,0,0,.941,2.255A3.12,3.12,0,0,0,7,19.718a3.085,3.085,0,0,0,2.267-.929,3.07,3.07,0,0,0,.941-2.255h4.824a3.191,3.191,0,0,0,3.22,3.184,3.191,3.191,0,0,0,3.208-3.184h.808q.3,0,.6,0a1.466,1.466,0,0,0,.277-.024.576.576,0,0,0,.3-.072l.205-.145a.482.482,0,0,0,.169-.229,1,1,0,0,0,.048-.326.76.76,0,0,0-.241-.567.772.772,0,0,0-.555-.241V10.95q-.007-.458,0-.917l-.036-.422a2.05,2.05,0,0,0-.072-.47,2.255,2.255,0,0,0-.458-.748l-2.5-2.484a1.93,1.93,0,0,0-.627-.4,1.954,1.954,0,0,0-.736-.157H16.641V2.967a.76.76,0,0,0-.241-.555.772.772,0,0,0-.567-.241H2.977m18.488,7.984H16.641v-3.2h1.99a.366.366,0,0,1,.277.121l2.448,2.412a.445.445,0,0,1,.121.289v.362M7,18.126a1.55,1.55,0,0,1-1.146-.482,1.532,1.532,0,0,1,0-2.243,1.629,1.629,0,0,1,1.134-.47,1.59,1.59,0,0,1,1.134.482,1.545,1.545,0,0,1,0,2.243,1.59,1.59,0,0,1-1.134.482m11.264,0a1.55,1.55,0,0,1-1.134-.482,1.545,1.545,0,0,1,0-2.243,1.559,1.559,0,0,1,2.255,0,1.545,1.545,0,0,1,0,2.243,1.543,1.543,0,0,1-1.122.482M2.977,0H15.833a2.955,2.955,0,0,1,2.979,2.967V3.2a4.254,4.254,0,0,1,1.4.314,4.211,4.211,0,0,1,1.339.868L24.034,6.85a3.883,3.883,0,0,1,.989,1.6,4.265,4.265,0,0,1,.193.965,13.748,13.748,0,0,1,.036,1.532v2.762a2.937,2.937,0,0,1,.8,2.026,3.355,3.355,0,0,1-.169,1.049,2.653,2.653,0,0,1-.941,1.254l-.314.229a2.774,2.774,0,0,1-1.435.422,5.4,5.4,0,0,1-8.743,1.64,5.507,5.507,0,0,1-1.134-1.628H11.937A5.153,5.153,0,0,1,10.8,20.333,5.294,5.294,0,0,1,7,21.9a5.415,5.415,0,0,1-5-3.377,2.484,2.484,0,0,1-.555-.253q-.167-.109-.326-.229a2.641,2.641,0,0,1-.941-1.254A3.039,3.039,0,0,1,.01,15.738V2.967A2.918,2.918,0,0,1,.878.868,2.955,2.955,0,0,1,2.977,0Z" transform="translate(0)" fill="#1c99e1"/>
  </g>
</svg>
